<mxfile host="app.diagrams.net" modified="2022-03-11T20:31:32.163Z" agent="5.0 (Macintosh; Intel Mac OS X 10_15_7) AppleWebKit/537.36 (KHTML, like Gecko) Chrome/99.0.4844.51 Safari/537.36" etag="8vobDLFwtFBUZHETev8v" version="17.1.2" type="github">
  <diagram id="XzU88MFnE1Mp-erbCHA6" name="整体架构">
    <mxGraphModel dx="1409" dy="794" grid="1" gridSize="10" guides="1" tooltips="1" connect="1" arrows="1" fold="1" page="1" pageScale="1" pageWidth="850" pageHeight="1100" math="0" shadow="0">
      <root>
        <mxCell id="0" />
        <mxCell id="1" parent="0" />
        <object label="Batch Send" id="IMkSQCw6tzFDL6CUBRC3-1">
          <mxCell style="rounded=0;whiteSpace=wrap;html=1;fontStyle=1;fontColor=#000000;" vertex="1" parent="1">
            <mxGeometry x="80" y="70" width="120" height="60" as="geometry" />
          </mxCell>
        </object>
        <mxCell id="IMkSQCw6tzFDL6CUBRC3-2" value="Uniwap" style="rounded=0;whiteSpace=wrap;html=1;fontStyle=1" vertex="1" parent="1">
          <mxGeometry x="300" y="70" width="120" height="60" as="geometry" />
        </mxCell>
        <mxCell id="IMkSQCw6tzFDL6CUBRC3-3" value="LINK" style="rounded=0;whiteSpace=wrap;html=1;fontStyle=1" vertex="1" parent="1">
          <mxGeometry x="500" y="70" width="120" height="60" as="geometry" />
        </mxCell>
        <mxCell id="IMkSQCw6tzFDL6CUBRC3-4" value="Stable coin" style="rounded=0;whiteSpace=wrap;html=1;fontStyle=1" vertex="1" parent="1">
          <mxGeometry x="680" y="70" width="120" height="60" as="geometry" />
        </mxCell>
      </root>
    </mxGraphModel>
  </diagram>
</mxfile>
